<?xml version="1.0" encoding="utf-8"?>
<!-- Generator: Adobe Illustrator 16.0.0, SVG Export Plug-In . SVG Version: 6.00 Build 0)  -->
<!DOCTYPE svg PUBLIC "-//W3C//DTD SVG 1.1//EN" "http://www.w3.org/Graphics/SVG/1.1/DTD/svg11.dtd">
<svg version="1.1" id="Layer_1" xmlns="http://www.w3.org/2000/svg" xmlns:xlink="http://www.w3.org/1999/xlink" x="0px" y="0px"
	 width="2160px" height="1440px" viewBox="0 0 2160 1440" enable-background="new 0 0 2160 1440" xml:space="preserve">
<g enable-background="new    ">
	<path d="M483.151,572.147l-4.253,3.189l-4.252,2.126l-0.532-5.315l2.658-5.582h4.784L483.151,572.147z M688.606,654.276
		l-3.987,24.984l-9.834,25.516l-6.911,14.885l-6.645,9.036l-8.771,10.897l-10.1,10.366l-12.227,6.645l-17.808,5.315l-19.137,2.924
		l-18.339-2.392l-16.479-3.189l-13.023-7.177l-24.453-14.618l-14.087-13.556l-7.176-7.708l-9.303-11.429l-5.848-14.618
		l-3.987-14.618l-2.126-15.416l2.126-11.429l-2.658-14.619l-3.189-10.897l3.721-13.023v-6.645l3.721-4.253v-10.365l3.456-6.646
		l5.847-6.91l3.987-14.087l7.442-12.758l8.239-9.037l5.848-10.365l7.176-1.063l8.239-6.645l5.848-2.658l7.708-3.721l7.708-6.113
		l8.505-3.189l8.239-8.239l7.708-9.303l2.658-2.658l6.645-3.189l10.366,2.126l9.568,6.379l8.24,9.303l3.189,14.087l-1.595,9.834
		l-10.366,10.366l-13.556,6.113l-18.339,1.063l-11.96,16.213l-7.708,16.479l-8.771,11.961l-7.708,20.731l-2.126,20.466
		l-4.253,18.605l7.442,19.137l2.392,18.34l9.834,11.429l9.568,21.795l7.176,1.595l3.721,3.986l8.771,2.127l11.96,1.595l14.087-3.722
		l13.821-4.519l8.505-6.91l0.531-19.137l6.113-3.722l-0.532-15.415l3.721-10.101l1.595-10.897l3.455-9.303l-2.126-9.302
		l-1.329-14.087l-5.316-9.835l-7.176-5.05l-5.315-10.897l-9.303-12.492l1.595-10.365l3.189-9.037l6.113-3.986h8.771l11.429,7.176
		l10.897,5.848l5.316,10.365l7.176,6.646l2.126,10.896l4.252,10.897l3.455,8.771l5.848,8.505l1.595,14.353L688.606,654.276z
		 M570.862,490.815l-4.784,3.987l-1.595-3.987l1.595-5.315l4.784,1.063V490.815z"/>
	<path d="M912.667,526.963l-1.063,10.897l-1.595,13.556l-2.658,10.365l-3.456,7.442l-2.126,7.708l-4.253,8.771l-7.176,4.784
		l-3.721,7.707l-7.708,7.708l-7.708,3.189l-6.379,4.253l-27.376,3.189l-13.024-3.189h-7.974l-10.366-4.784l-1.595-2.658v-7.176
		l2.126-1.595h6.911l7.708,2.657l8.24,2.127l15.15,1.063l13.024-1.063l8.771-2.127l5.315-7.707l3.456-7.974l7.442-10.366
		l1.861-7.708l4.784-7.176l2.126-11.961l1.063-20.466l-2.658-10.366v-10.897l-4.252-9.302l-8.239-15.948l-2.126-6.379l-5.05-2.657
		l-3.721-9.303l-11.429-5.582l-8.771-3.189l-14.087-1.595l-15.15-0.531l-14.884,0.531l-3.721,3.722l2.658,8.239l-3.721,11.96
		l-3.721,12.492l-3.987,14.087l-3.189,14.353l-1.595,7.974L784.291,536l-2.126,10.897l-1.329,14.353l-2.658,10.897v11.961
		l-3.189,13.023l-1.595,9.834l-1.595,11.429l-4.519,12.492l-1.595,11.961l-3.721,14.087l-2.126,14.087l-3.455,14.884l-4.252,15.15
		l-13.024,26.047l-0.532,9.303l-3.987,8.239l-3.189,9.303l0.532,11.961l-1.063,7.974l-3.721,9.834l2.126,13.556l4.784,6.645
		l1.595,7.177l-1.595,2.657l-4.784,0.532h-2.658l-2.392-3.189l-3.721-9.303l-1.063-12.492l1.595-15.947l2.126-14.087l1.063-14.619
		v-10.897l3.987-2.657l2.658-6.645l0.531-13.024l-2.126-13.023l4.784-8.771l5.05-22.857l2.126-13.556l2.658-11.429l-2.658-10.897
		l1.063-9.834l3.189-18.073l1.063-18.34l2.923-15.947l-0.531-14.619l3.189-12.491l4.252-18.605V508.89l2.924-20.2l-2.924-12.492
		l-1.595-13.023l-1.595-8.239l2.658-12.492l6.113-5.848l11.429-2.924l10.366,3.987h7.442l13.29-6.646l13.024-2.126l12.492,1.595
		l11.429-3.189l13.024,2.658l14.618,5.581l10.897,7.442l9.834,10.366l8.24,15.682l3.721,5.05l1.063,8.771l4.519,7.442l2.658,10.366
		l1.595,9.834l-1.063,8.771L912.667,526.963z M742.296,528.558l-1.063,3.189l-4.784,2.658l-4.519-5.315l4.519-2.658L742.296,528.558
		z"/>
	<path d="M1232.146,521.382l-5.051,6.645h-6.91l-8.239-2.924l-7.708-3.721l-7.974-5.848l-1.595-5.05l-9.834-2.127l-5.582-2.126
		l-10.896,1.595h-9.303l-9.568,0.531l-13.29,4.785l-9.568,5.581l-15.416,14.087l-3.189,7.708l-5.05,10.897l1.328,12.492
		l4.254,10.365l4.252,6.379l13.821,9.835l7.974,6.645l9.303,5.848l7.176,6.645l8.506,6.379l17.542,10.365l8.771,7.708l6.379,7.177
		l6.113,4.252l1.596,6.113l8.771,14.087l3.722,8.771l2.125,9.568l3.987,10.366l3.19,9.834l0.531,14.087l-2.127,10.897l-6.113,12.758
		l-3.189,10.1l-6.645,7.177l-3.189,6.645l-7.708,7.974l-6.91,5.581l-11.429,4.253l-15.416,2.658l-10.632,2.392l-12.226-2.392
		l-8.506-0.531l-7.708-1.595l-5.847-3.19h-3.987l-2.126-2.657l1.063-6.113l2.127-3.189h3.986v3.189l1.063,2.126l3.722,2.393
		l7.708,3.189l17.276,1.063l5.581-1.595l8.506,0.532l11.429-3.189l10.366-4.519l12.758-8.771l2.126-6.379l5.315-8.771l3.189-9.303
		l3.987-6.911l0.532-8.239l2.657-11.96l-2.126-7.708l-2.127-10.366l-5.581-7.974l-2.658-9.834l-4.784-9.303l-3.455-8.771
		l-6.379-3.721l-5.051-5.581l-7.441-5.316l-6.645-6.645l-11.961-5.315l-7.176-7.177l-7.975-1.595l-7.707-6.645l-9.834-6.911
		l-5.316-4.518l-9.834-2.658l-9.303-8.239l-8.24-9.568l-4.783-9.835l-5.05-10.365v-20.731l4.518-11.43l5.315-10.897l6.113-9.303
		l6.911-7.441l6.645-6.113l8.239-6.645l9.834-4.784l8.506-3.189l12.492-0.532l11.961-1.063l11.96-2.924l10.366-5.316l10.896-3.189
		l5.051-3.986l10.365,1.595l5.848,5.581l3.455,9.835l4.253,5.315l5.315,5.582l3.455,8.505l1.063,8.239L1232.146,521.382z
		 M1234.272,533.342l-0.531,6.113l-7.177,1.595l-4.783-0.531l-5.582-5.05l5.05-4.253l7.708-0.531L1234.272,533.342z"/>
	<path d="M1538.603,828.9l-1.063,2.658l-3.455,2.392l-3.721-7.176l-3.722-14.087l-3.455-6.113v-3.722l-1.063-21.263l-6.379-20.2
		l-2.126-21.795l-3.987-14.618l-4.784-21.264l-1.595-15.682l-5.05-8.771l-4.253-16.213v-13.29l-3.721-10.897l0.531-22.326
		l-3.986-7.442l-1.596-11.96l-0.531-17.011l2.127-16.745l3.455-9.303l-3.451-10.365l-1.591-10.897l-0.531-12.492l-6.632-5.315
		l-5.84-2.393l-7.164,7.177l-7.961,10.897l-7.172,13.555l-6.109,15.682l-5.312,17.542l-4.78,14.619l-4.518,14.884l-4.781,14.618
		l-3.998,8.24l-4.266,4.252l-4.797,2.658l-7.201-3.189l-4.797-7.708l-8.239-12.492l-4.519-11.429l-5.848-26.048l-2.126-11.96
		l-3.455-14.619L1369.826,536l-3.189-11.961l-4.52-9.834l-5.315-3.189l-6.645-3.189l-3.189,7.177l-4.253,11.96l-5.05,14.619
		l-4.253,31.097l-3.455,17.809v6.645l-2.658,23.921l-5.315,28.705l-0.531,15.416l4.784,5.315l0.531,11.43l2.658,9.834l-5.316,8.771
		l-6.113,8.771l-10.365,1.595h-10.1l-12.758,0.531l-8.506-3.721l-6.113-4.519l-3.189-10.365l3.189-22.327l6.113-11.429l4.784-2.126
		l1.063-27.11l9.303-32.161l1.595-13.023l6.645-11.961l-0.532-7.708l7.443-11.96v-7.708l15.415-37.477l2.126-7.708l4.785-3.721
		l1.594-9.834l7.177-9.303l9.303-13.556l8.239-4.784h6.91l4.52,5.315l4.783,9.835l3.189,12.492l3.987,13.555l5.315,18.074
		l2.658,12.492l4.519,14.618l2.126,11.429l2.127,15.947l1.594,13.024l3.987,12.491l6.911,8.771l3.986,3.189l4.253-5.05l2.657-9.037
		l5.051-10.365l5.848-17.543l6.645-15.682l3.721-11.96l3.721-8.771l-3.721-4.252l-3.189-8.771l0.531-10.897l4.785-11.429
		l5.581-10.897l2.126-10.366l7.177-12.492l5.315-5.581l7.177-9.568l9.834-6.113l5.847-3.721l8.771,2.126l8.771,1.063l9.037,5.315
		l7.176,6.645l6.113,8.239l1.595,11.43l0.532,13.555l-0.532,12.492l-0.532,15.682l1.064,29.503v17.011l4.783,29.769l-0.531,14.618
		l-1.063,19.668l-0.532,15.947v14.619l-1.595,17.808l-3.189,7.177l3.189,14.087v28.971l3.189,5.848l0.531,19.668l2.127,15.947
		l3.455,29.237l1.063,13.023V828.9z M1308.96,744.113l-3.987,3.721l-4.252-0.531l0.531-7.176h4.252L1308.96,744.113z
		 M1369.826,417.458l-2.658,4.784l-4.519-1.595l0.532-6.911h5.049L1369.826,417.458z M1547.904,643.91l-5.581,5.848l-2.658-5.848
		l3.722-5.581L1547.904,643.91z"/>
	<path d="M1728.11,521.382l-5.05,6.645h-6.911l-8.239-2.924l-7.708-3.721l-7.974-5.848l-1.595-5.05l-9.834-2.127l-5.582-2.126
		l-10.897,1.595h-9.303l-9.568,0.531l-13.289,4.785l-9.568,5.581l-15.416,14.087l-3.189,7.708l-5.05,10.897l1.329,12.492
		l4.252,10.365l4.253,6.379l13.821,9.835l7.974,6.645l9.303,5.848l7.176,6.645l8.506,6.379l17.542,10.365l8.771,7.708l6.38,7.177
		l6.112,4.252l1.595,6.113l8.771,14.087l3.721,8.771l2.127,9.568l3.986,10.366l3.189,9.834l0.532,14.087l-2.127,10.897
		l-6.113,12.758l-3.189,10.1l-6.645,7.177l-3.189,6.645l-7.708,7.974l-6.91,5.581l-11.429,4.253l-15.416,2.658l-10.632,2.392
		l-12.227-2.392l-8.505-0.531l-7.708-1.595l-5.848-3.19h-3.986l-2.127-2.657l1.063-6.113l2.126-3.189h3.987v3.189l1.063,2.126
		l3.721,2.393l7.708,3.189l17.276,1.063l5.581-1.595l8.506,0.532l11.429-3.189l10.366-4.519l12.758-8.771l2.126-6.379l5.315-8.771
		l3.189-9.303l3.987-6.911l0.531-8.239l2.658-11.96l-2.126-7.708l-2.127-10.366l-5.581-7.974l-2.658-9.834l-4.784-9.303
		l-3.455-8.771l-6.379-3.721l-5.05-5.581l-7.442-5.316l-6.645-6.645l-11.961-5.315l-7.176-7.177l-7.975-1.595l-7.707-6.645
		l-9.835-6.911l-5.315-4.518l-9.834-2.658l-9.303-8.239l-8.239-9.568l-4.784-9.835l-5.051-10.365v-20.731l4.519-11.43l5.316-10.897
		l6.112-9.303l6.911-7.441l6.645-6.113l8.239-6.645l9.835-4.784l8.505-3.189l12.492-0.532l11.96-1.063l11.961-2.924l10.366-5.316
		l10.897-3.189l5.05-3.986l10.365,1.595l5.848,5.581l3.455,9.835l4.253,5.315l5.315,5.582l3.455,8.505l1.063,8.239L1728.11,521.382z
		 M1730.236,533.342l-0.531,6.113l-7.177,1.595l-4.784-0.531l-5.581-5.05l5.05-4.253l7.708-0.531L1730.236,533.342z"/>
</g>
</svg>
